<?xml version="1.0" standalone="no"?>
<!DOCTYPE svg PUBLIC "-//W3C//DTD SVG 20010904//EN"
 "http://www.w3.org/TR/2001/REC-SVG-20010904/DTD/svg10.dtd">
<svg version="1.0" xmlns="http://www.w3.org/2000/svg"
 width="512.000000pt" height="512.000000pt" viewBox="0 0 512.000000 512.000000"
 preserveAspectRatio="xMidYMid meet">

<g transform="translate(0.000000,512.000000) scale(0.100000,-0.100000)"
fill="#000000" stroke="none">
<path d="M2352 4339 c-253 -16 -550 -75 -801 -159 -66 -22 -132 -40 -146 -40
-14 0 -37 11 -50 24 l-24 24 -83 -39 c-46 -22 -120 -61 -166 -87 -77 -43 -82
-48 -77 -72 9 -41 -11 -77 -61 -113 -528 -366 -817 -907 -764 -1431 30 -301
130 -547 327 -800 54 -70 62 -95 41 -141 -10 -23 -8 -29 28 -66 21 -22 76 -72
122 -112 l83 -70 30 17 c40 24 60 17 171 -54 244 -159 555 -292 853 -366 264
-65 383 -78 720 -78 320 -1 414 8 650 59 339 73 712 231 981 416 57 39 87 45
123 23 l30 -17 83 70 c46 40 101 90 122 112 36 37 38 43 28 66 -21 46 -13 71
49 151 187 241 288 490 320 784 31 295 -59 638 -239 910 -114 171 -303 367
-465 482 -34 24 -77 58 -95 76 -31 29 -34 37 -28 71 l6 38 -83 46 c-45 25
-119 64 -165 86 l-83 39 -24 -24 c-13 -13 -36 -24 -50 -24 -14 0 -80 18 -146
40 -263 88 -538 142 -824 160 -175 11 -211 11 -393 -1z m633 -187 c243 -38
442 -92 476 -129 33 -34 30 -90 -7 -121 -32 -28 -41 -27 -204 16 -450 119
-927 118 -1388 -3 -79 -21 -143 -33 -158 -29 -32 8 -64 50 -64 84 0 53 31 75
152 109 125 34 347 76 478 90 146 16 566 6 715 -17z m-1726 -358 c33 -27 41
-67 21 -104 -5 -10 -54 -49 -107 -86 -120 -82 -311 -271 -380 -374 -101 -151
-163 -308 -184 -465 -36 -275 67 -587 270 -818 39 -45 51 -66 51 -91 0 -56
-57 -97 -115 -82 -58 15 -228 256 -294 417 -72 176 -85 250 -86 459 0 171 2
192 28 285 88 321 332 634 656 844 75 48 98 50 140 15z m2742 -15 c250 -162
452 -383 570 -624 84 -171 109 -273 116 -460 7 -207 -23 -362 -109 -555 -38
-85 -142 -240 -210 -312 -57 -61 -85 -71 -131 -46 -65 34 -64 88 4 165 203
231 306 543 270 818 -21 157 -83 313 -184 465 -68 102 -270 300 -384 378 -99
67 -113 83 -113 130 0 35 48 82 84 82 13 0 52 -19 87 -41z m-1945 -122 c74
-32 123 -91 139 -165 6 -28 -6 -190 -21 -294 l-6 -38 392 0 392 0 -6 38 c-19
129 -27 271 -17 308 26 98 112 164 213 164 94 0 181 -62 206 -148 15 -50 202
-1302 202 -1351 0 -80 -48 -151 -124 -187 -103 -48 -266 -23 -324 50 -41 53
-52 109 -85 441 l-32 330 -425 0 -425 0 -32 -330 c-33 -332 -44 -388 -85 -441
-60 -76 -225 -99 -329 -46 -71 36 -111 92 -117 164 -3 50 174 1279 198 1368
13 48 61 104 112 129 49 24 130 28 174 8z m-701 -2083 c419 -220 914 -321
1394 -285 362 28 647 105 969 263 127 62 147 69 175 62 22 -7 37 -20 50 -46
16 -33 16 -40 4 -71 -13 -30 -31 -43 -133 -95 -394 -199 -789 -292 -1254 -292
-458 0 -822 83 -1228 282 -127 62 -145 74 -158 104 -24 58 15 121 77 123 8 1
55 -20 104 -45z"/>
</g>
</svg>
